<svg xmlns="http://www.w3.org/2000/svg" viewBox="0 0 174 57">
	<defs>
		<style>.cls-1,.cls-3{fill:#00a1d6;}.cls-2{fill:#0059a8;}.cls-3{fill-rule:evenodd;}</style>
	</defs>
	<path class="cls-1" d="M54.09,19.43V20.7H44.75v6.9H53v1.33H44.75v8.26H43.4V19.43Z"/>
	<path class="cls-1" d="M57.38,19.26H58.9v2H57.38Zm.08,4.53h1.36v13.4H57.46Z"/>
	<path class="cls-1" d="M73.93,28.46v8.73H72.54V28.46c0-2-.82-3.53-4-3.53a11.87,11.87,0,0,0-4.25.85V37.19H63V25a12.88,12.88,0,0,1,5.74-1.44C72,23.54,73.93,25.2,73.93,28.46Z"/>
	<path class="cls-1" d="M88.26,29.18v4.09c0,3.64-3.73,4.11-5.41,4.11s-5.58-.55-5.58-4.17c0-4.17,5.16-4.33,6.41-4.33a16.1,16.1,0,0,1,3.2.27c0-2.82-1.38-4.22-4.42-4.22a13.31,13.31,0,0,0-3.81.6V24.21a12.62,12.62,0,0,1,3.89-.64C86.52,23.57,88.26,25.53,88.26,29.18ZM86.91,30.4a20.88,20.88,0,0,0-3.4-.25c-1.68,0-4.89.38-4.89,3.06,0,2.46,2.57,2.93,4.23,2.93s4.06-.44,4.06-2.87Z"/>
	<path class="cls-1" d="M103,28.46v8.73h-1.38V28.46c0-2-.83-3.53-4-3.53a11.87,11.87,0,0,0-4.25.85V37.19H92.1V25a12.9,12.9,0,0,1,5.75-1.44C101.14,23.54,103,25.2,103,28.46Z"/>
	<path class="cls-2" d="M118.54,32.66c0,2.79-2.1,4.78-6.22,4.78a12.05,12.05,0,0,1-5.41-1.22V34.76a10.58,10.58,0,0,0,5.3,1.33c2.79,0,4.92-1.08,4.92-3.43,0-5.61-10.14-2.6-10.14-8.7,0-2.46,1.63-4.81,5.86-4.81a10.78,10.78,0,0,1,4.72,1.08v1.41A9.87,9.87,0,0,0,113,20.51c-3,0-4.59,1.32-4.59,3.45C108.4,28.6,118.54,25.89,118.54,32.66Z"/>
	<path class="cls-2" d="M131.3,23.79h1.47l-5.61,15c-1.11,3-2.71,3.68-4.09,3.68a3.69,3.69,0,0,1-1.27-.25V41a3.05,3.05,0,0,0,1.13.25c2.1,0,2.63-2.38,3.43-4l-5.22-13.4h1.49c1.44,3.87,2.93,7.74,4.39,11.61Z"/>
	<path class="cls-2" d="M144,33.71c0,2.15-1.65,3.7-4.86,3.7a9.17,9.17,0,0,1-4.2-1V35a9,9,0,0,0,4.15,1.05c2,0,3.53-.78,3.53-2.35,0-4-7.6-1.71-7.6-6.44,0-1.9,1.3-3.73,4.56-3.73a9,9,0,0,1,3.62.81V25.7a7.85,7.85,0,0,0-3.48-.83c-1.77,0-3.31.66-3.31,2.4C136.39,30.53,144,28.52,144,33.71Z"/>
	<polygon class="cls-2" points="0 47.03 4.68 47.03 4.68 21.65 0 23.31 0 47.03"/>
	<polygon class="cls-2" points="8.2 53.66 12.88 53.66 12.88 28.28 8.2 29.94 8.2 53.66"/>
	<polygon class="cls-2" points="16.41 43.71 21.08 43.71 21.08 18.34 16.41 19.99 16.41 43.71"/>
	<polygon class="cls-2" points="24.61 13.36 24.61 37.08 29.29 37.08 29.29 11.71 24.61 13.36"/>
	<path class="cls-3" d="M4.68,10,0,11.63v11.9l4.68-1.66V10ZM29.29,0,24.61,1.69V13.58l4.68-1.65V0ZM21.08,6.66,16.41,8.32V20.21l4.67-1.65V6.66Zm-8.2,10L8.2,18.26v11.9l4.68-1.66Z"/>
	<path class="cls-1" d="M141.43,43v1h-7.18v5.31h6.31v1h-6.31v6.36h-1V43Z"/>
	<path class="cls-1" d="M144.13,56.71V42.42h1.07V56.71Z"/>
	<path class="cls-1" d="M157.69,51.54c0,4.38-2.61,5.34-4.82,5.34s-4.83-1-4.83-5.34,2.62-5.33,4.83-5.33S157.69,47.16,157.69,51.54Zm-1,0c0-3.25-1.51-4.36-3.78-4.36s-3.78,1.11-3.78,4.36,1.53,4.36,3.78,4.36S156.65,54.79,156.65,51.54Z"/>
	<path class="cls-1" d="M163.88,56.71h-1L159.25,46.4h1.12l3,8.8,2.74-8.8h1l2.79,8.8c1-2.94,2-5.87,3-8.8H174l-3.57,10.31h-1.06L166.62,48Z"/>
</svg>